<svg display="none" viewBox="0 0 135 94" xmlns="http://www.w3.org/2000/svg" xmlns:xlink="http://www.w3.org/1999/xlink"><view id="check" viewBox="0 73 28 21"/><svg width="28" height="21" fill="none" viewBox="0 0 28 21" y="73"><path fill="#2D2D2D" fill-rule="evenodd" clip-rule="evenodd" d="M27.4 1.06a2 2 0 0 1 .04 2.83l-15.5 16a2 2 0 0 1-2.88 0l-8.5-8.77a2 2 0 0 1 2.88-2.79l7.06 7.3L24.56 1.1a2 2 0 0 1 2.83-.05Z"/></svg><view id="decor-star" viewBox="0 0 73 73"/><svg width="73" height="73" fill="none" viewBox="0 0 73 73"><path fill="#000" d="m36.6.6 7.2 28.9 28.8 7.1-28.8 7.2-7.2 28.8-7.1-28.8L.6 36.6l28.9-7.1L36.6.6Z"/></svg><view id="play" viewBox="73 0 62 53"/><svg width="62" height="53" fill="none" viewBox="0 0 62 53" x="73"><path fill="#000" d="m31 0 30.31 52.5H.69L31 0Z"/></svg></svg>