<svg display="none" xmlns="http://www.w3.org/2000/svg" xmlns:xlink="http://www.w3.org/1999/xlink"><symbol fill="none" viewBox="0 0 40 40" id="telegram"><g clip-path="url(#aa)"><path fill="#37AEE2" d="M34 0H6a6 6 0 0 0-6 6v28a6 6 0 0 0 6 6h28a6 6 0 0 0 6-6V6a6 6 0 0 0-6-6Z"/><path fill="#C8DAEA" d="M15.547 31.563c-.86 0-.781-.313-1.016-1.094l-2.5-8.203 19.14-11.25"/><path fill="#A9C9DD" d="M15.547 31.563c.547 0 .86-.313 1.25-.625l3.515-3.36-4.375-2.656"/><path fill="#F6FBFE" d="m15.937 24.922 10.547 7.734c1.093.703 2.03.313 2.343-1.093l4.297-20.157c.39-1.718-.703-2.5-1.875-1.953L6.171 19.141c-1.64.625-1.64 1.64-.312 2.03l6.484 2.032 14.844-9.453c.703-.39 1.328-.234.86.313"/></g><defs><clipPath id="aa"><path fill="#fff" d="M0 0h40v40H0z"/></clipPath></defs></symbol><symbol fill="none" viewBox="0 0 40 40" id="whatsapp"><rect width="40" height="40" fill="url(#ba)" rx="6"/><path fill="#fff" fill-rule="evenodd" clip-rule="evenodd" d="M34.282 20.578c0 7.662-6.26 13.874-13.982 13.874-2.453 0-4.756-.626-6.76-1.726L5.8 35.186l2.523-7.444a13.73 13.73 0 0 1-2.005-7.164c0-7.663 6.26-13.875 13.983-13.875 7.722 0 13.982 6.212 13.982 13.875ZM20.3 8.913c-6.484 0-11.757 5.232-11.757 11.665 0 2.551.832 4.916 2.24 6.84l-1.468 4.331 4.516-1.435a11.756 11.756 0 0 0 6.469 1.928c6.48 0 11.755-5.232 11.755-11.664 0-6.433-5.274-11.665-11.755-11.665Zm7.06 14.86c-.086-.141-.315-.226-.656-.396-.343-.17-2.03-.994-2.343-1.106-.314-.114-.544-.17-.771.17-.229.34-.886 1.106-1.086 1.333-.2.227-.4.255-.742.085-.343-.17-1.448-.53-2.757-1.687-1.018-.903-1.706-2.015-1.907-2.356-.199-.34-.02-.523.15-.693.155-.153.343-.397.515-.595.171-.2.228-.342.343-.569.114-.227.057-.425-.03-.595-.085-.17-.77-1.843-1.057-2.525-.284-.68-.57-.654-.77-.654-.2 0-.57.06-.57.06s-.687.084-1 .425c-.315.34-1.2 1.163-1.2 2.835 0 1.674 1.227 3.292 1.399 3.517.171.227 2.37 3.774 5.855 5.135 3.485 1.361 3.485.907 4.113.85.628-.055 2.028-.822 2.314-1.616.285-.795.285-1.476.2-1.617Z"/><defs><linearGradient id="ba" gradientUnits="userSpaceOnUse" x1="20" x2="20" y1="0" y2="40"><stop stop-color="#33C220"/><stop offset="1" stop-color="#159B0C"/></linearGradient></defs></symbol><symbol fill="none" viewBox="0 0 46 46" id="burger"><path stroke="currentColor" stroke-linecap="round" stroke-linejoin="round" stroke-width="3" d="M2 6h42M2 22h42M2 38h42"/></symbol><symbol fill="none" viewBox="0 0 50 4" id="minus"><path stroke="currentColor" stroke-linecap="round" stroke-linejoin="round" stroke-width="3" d="M2 2h46"/></symbol><symbol fill="none" viewBox="0 0 50 50" id="plus"><path stroke="currentColor" stroke-linecap="round" stroke-linejoin="round" stroke-width="3" d="M24.79 2v46M2 25h46"/></symbol></svg>