<svg width="250" height="71" viewBox="0 0 250 71" fill="none" xmlns="http://www.w3.org/2000/svg">
<g clip-path="url(#clip0_1934_835)">
<path d="M56.6893 53.8037L60.6924 28.7909C60.8215 28.0092 61.2089 27.3578 61.8546 27.0973L61.9837 26.5762C62.1128 25.9248 61.9837 25.4037 61.7254 25.1432C61.4672 24.8826 61.0798 24.6221 60.5632 24.6221C59.401 24.6221 58.7554 25.2734 58.4971 26.4459L54.494 51.9799C54.3649 52.6312 54.494 53.1523 54.7523 53.4129C55.0105 53.6734 55.3979 53.934 55.9145 53.934C56.1727 53.934 56.431 53.934 56.6893 53.8037Z" fill="#2D2D2D"/>
<path d="M70.7642 23.8403L68.698 21.7559C69.8602 23.1889 70.3768 25.143 69.9894 27.7485L66.2445 51.3283C65.2115 57.0605 61.4666 59.4054 55.1392 59.4054C52.04 59.4054 49.7156 58.754 48.166 57.321L50.3613 59.5357C51.9109 60.9687 54.3644 61.6201 57.4635 61.6201C63.791 61.6201 67.665 59.2751 68.5689 53.543L72.3137 29.5724C72.572 27.0971 72.0555 25.143 70.7642 23.8403Z" fill="#2D2D2D"/>
<path d="M169.938 10.0312L162.32 59.0147H153.797L156.121 61.3597H164.515L172.263 12.2459L169.938 10.0312Z" fill="#2D2D2D"/>
<path d="M90.3919 29.0513L89.488 28.921C87.1636 28.5302 84.3227 28.6605 83.8062 32.0476L79.1574 61.3596H70.7638L68.4395 59.0146H76.833L81.4818 29.7027C82.1275 25.6642 85.8723 26.1853 88.455 26.8366L89.6171 19.4109V19.1504L90.7793 20.3229L91.5541 21.1045L90.3919 29.0513Z" fill="#2D2D2D"/>
<path d="M101.886 10.0312L94.1377 59.0147H85.7441L87.9394 61.3597H96.4621L104.081 12.2459L101.886 10.0312Z" fill="#2D2D2D"/>
<path d="M114.54 26.5763C114.669 25.9249 114.54 25.4038 114.282 25.1433C114.024 24.8827 113.636 24.7524 113.12 24.7524C111.958 24.7524 111.312 25.4038 111.054 26.5763L107.051 52.1102C106.922 52.7616 107.051 53.2827 107.309 53.5433C107.567 53.8038 107.955 54.0644 108.471 54.0644C108.859 54.0644 109.117 54.0644 109.375 53.9341L113.378 28.9212C113.507 28.1396 113.895 27.4882 114.54 27.2277V26.5763Z" fill="#2D2D2D"/>
<path d="M125.388 10.0312L117.64 59.0147H112.604L111.184 56.5395C109.634 58.3634 107.568 59.4056 104.727 59.4056C102.661 59.4056 100.982 58.8845 99.9492 57.9725L102.015 60.0569C103.048 61.0991 104.727 61.6202 106.922 61.6202C109.505 61.6202 111.442 60.8386 112.862 59.2753L113.637 60.0569L114.799 61.2294H119.836L127.584 12.2459L125.388 10.0312Z" fill="#2D2D2D"/>
<path d="M51.7818 9.90088L36.9316 58.8844H28.0215L30.3459 61.099H39.1269L54.1062 12.1156L51.7818 9.90088Z" fill="#2D2D2D"/>
<path d="M199.638 45.2056L198.605 52.1102C198.476 52.7615 198.605 53.2826 198.864 53.5432C199.122 53.8037 199.509 54.0643 200.026 54.0643C200.413 54.0643 200.671 54.0643 200.93 53.934L201.963 47.5505L199.638 45.2056Z" fill="#2D2D2D"/>
<path d="M215.263 23.9705L213.068 21.7559C214.36 23.3192 214.747 25.4036 214.23 27.8788L213.456 32.4384H205.32L207.645 34.6531H215.78L216.426 30.8751L216.684 28.6604C216.813 26.7063 216.426 25.143 215.263 23.9705Z" fill="#2D2D2D"/>
<path d="M206.225 27.0973C205.579 27.3578 205.192 28.0092 205.063 28.7909L204.417 33.09C204.288 33.8716 204.288 34.3927 204.676 34.9138L203.384 33.7413C202.351 32.9597 201.964 32.0478 202.222 30.745L202.868 26.4459C203.126 25.2734 203.772 24.6221 204.934 24.6221C205.45 24.6221 205.838 24.7523 206.096 25.1432C206.354 25.534 206.483 25.9248 206.354 26.5762L206.225 27.0973Z" fill="#2D2D2D"/>
<path d="M209.323 39.2129C211.389 41.4276 211.776 44.5542 211.26 47.8111L210.614 51.3285C209.581 57.0606 206.095 59.4055 199.25 59.4055C196.151 59.4055 193.827 58.6239 192.277 57.1909L194.473 59.4055C196.022 60.9689 198.476 61.6202 201.446 61.6202C208.29 61.6202 211.776 59.2753 212.809 53.5432L213.584 48.2019C213.713 45.5964 213.197 43.2514 211.389 41.4276L209.323 39.2129Z" fill="#2D2D2D"/>
<path d="M224.303 53.8036C224.045 53.9339 223.786 53.9339 223.399 53.9339C222.882 53.9339 222.495 53.8036 222.237 53.4128C221.978 53.022 221.849 52.6312 221.978 51.9798L223.011 45.0752L225.207 47.2899L224.303 53.8036Z" fill="#2D2D2D"/>
<path d="M232.696 39.2129C234.762 41.4276 235.149 44.5542 234.633 47.8111L233.987 51.3285C232.954 57.0606 229.468 59.4055 222.624 59.4055C219.524 59.4055 217.2 58.6239 215.65 57.1909L217.975 59.4055C219.524 60.9689 221.978 61.6202 224.948 61.6202C231.792 61.6202 235.278 59.2753 236.312 53.5432L237.086 48.2019C237.215 45.5964 236.699 43.2514 234.891 41.4276L232.696 39.2129Z" fill="#2D2D2D"/>
<path d="M226.757 33.8717L228.048 35.0442C227.79 34.5231 227.79 33.8717 227.919 33.2203L228.565 28.9212C228.694 28.1396 229.081 27.4882 229.727 27.2277L229.856 26.7066C229.985 26.0552 229.856 25.5341 229.598 25.2735C229.34 25.013 228.952 24.7524 228.436 24.7524C227.274 24.7524 226.628 25.4038 226.37 26.5763L225.724 30.8754C225.466 32.1781 225.724 33.0901 226.757 33.8717Z" fill="#2D2D2D"/>
<path d="M238.766 23.9705L236.57 21.7559C237.862 23.3192 238.249 25.4036 237.733 27.8788L236.958 32.4384H228.693L231.018 34.6531H239.153L239.799 30.8751L240.186 28.6604C240.315 26.7063 239.928 25.143 238.766 23.9705Z" fill="#2D2D2D"/>
<path d="M191.762 24.1009L189.567 21.8862C190.729 23.189 191.246 25.1431 190.858 27.6183L185.951 59.0147H180.786L179.365 56.5394C177.816 58.3633 175.879 59.4055 172.909 59.4055C170.843 59.4055 169.164 58.8844 168.131 57.9725L170.197 60.0569C171.23 61.2293 172.909 61.7505 175.233 61.7505C177.816 61.7505 179.753 60.9688 181.173 59.4055L183.11 61.3596H188.146L189.696 51.4587L192.924 30.7449L193.183 29.0514C193.312 26.8367 192.795 25.2734 191.762 24.1009Z" fill="#2D2D2D"/>
<path d="M179.752 44.9448C178.977 45.5962 178.59 46.3778 178.461 47.42L177.428 53.8035C177.17 53.9338 176.911 53.9338 176.524 53.9338C176.007 53.9338 175.62 53.8035 175.362 53.4127C175.104 53.1521 175.104 52.7613 175.104 52.3705C175.104 52.2402 175.104 52.1099 175.104 51.9796L176.137 45.0751C176.395 43.642 177.04 42.7301 178.332 41.9485L180.269 40.9062L179.752 44.9448Z" fill="#2D2D2D"/>
<path d="M180.526 34.6533L181.43 28.7909C181.559 28.0092 181.947 27.3578 182.592 27.0973L182.722 26.5762C182.851 25.9248 182.722 25.4037 182.463 25.1432C182.205 24.8826 181.818 24.6221 181.301 24.6221C180.139 24.6221 179.493 25.2734 179.235 26.4459L178.331 32.3083H169.938L172.262 34.523H178.331L180.526 34.6533Z" fill="#2D2D2D"/>
<path d="M157.542 14.3305L155.476 12.2461C156.767 13.6791 157.284 15.6332 156.896 18.2388L155.476 27.2277H146.953L149.148 29.4424H157.671L159.221 19.281C159.35 17.1966 158.704 15.503 157.542 14.3305Z" fill="#2D2D2D"/>
<path d="M140.883 53.9338C141.141 53.9338 141.4 53.9338 141.658 53.8036L147.211 19.4109C147.34 18.499 147.856 17.8476 148.631 17.587V17.1962C148.76 16.5448 148.631 16.0237 148.373 15.6329C148.115 15.3724 147.598 15.1118 147.082 15.1118C145.919 15.1118 145.145 15.7632 145.015 17.0659L139.463 51.8494C139.334 52.5008 139.463 53.0219 139.721 53.4127C139.85 53.6733 140.238 53.9338 140.883 53.9338Z" fill="#2D2D2D"/>
<path d="M151.602 51.0678C150.698 56.7999 146.566 59.4054 140.367 59.4054C136.752 59.4054 134.169 58.6238 132.49 57.1908L134.685 59.4054C136.235 60.9687 138.947 61.7504 142.563 61.7504C148.632 61.7504 152.893 59.1449 153.797 53.4128L155.605 41.9486L153.41 39.7339L151.602 51.0678Z" fill="#2D2D2D"/>
<path d="M61.8538 26.5762L57.8507 52.1101C57.5924 53.2826 56.9467 53.934 55.7845 53.934C55.268 53.934 54.8806 53.8037 54.6224 53.4129C54.3641 53.022 54.235 52.6312 54.3641 51.9799L58.3672 26.4459C58.6255 25.2734 59.2711 24.622 60.4333 24.622C60.9498 24.622 61.3372 24.7523 61.5955 25.1431C61.9829 25.534 61.9829 25.9248 61.8538 26.5762ZM61.2081 19.2808C54.8806 19.2808 51.0067 21.756 49.9736 27.4881L46.2288 51.3285C45.5831 56.6698 49.0697 59.4055 55.1389 59.4055C61.4664 59.4055 65.3403 57.0606 66.2443 51.3285L69.9891 27.7487C70.893 22.0165 67.5356 19.2808 61.2081 19.2808Z" fill="#E30907"/>
<path d="M162.32 59.0147L169.938 10.0312H161.545L153.797 59.0147H162.32Z" fill="#E30907"/>
<path d="M89.746 19.5413V19.2808C86.776 18.89 83.4186 19.5413 81.3525 22.1468L79.8029 19.6716H74.7667L68.5684 59.145H76.962L81.6107 29.8331C82.2564 25.7946 86.0012 26.3157 88.5839 26.967L89.746 19.5413ZM93.3618 10.0312L85.6138 59.0147H94.0074L101.755 10.0312H93.3618Z" fill="#E30907"/>
<path d="M114.54 26.5762L110.537 52.1101C110.279 53.2826 109.633 53.934 108.471 53.934C107.954 53.934 107.567 53.8037 107.309 53.4129C107.051 53.0221 106.921 52.6313 107.051 51.9799L111.054 26.5762C111.312 25.4037 111.958 24.7524 113.12 24.7524C113.636 24.7524 114.024 24.8826 114.282 25.2735C114.54 25.534 114.669 26.0551 114.54 26.5762ZM116.994 10.0312L115.315 20.9744C114.153 19.8019 112.474 19.2808 110.279 19.2808C105.759 19.2808 103.564 21.6257 102.918 26.1854L98.7861 52.6313C98.0113 57.1909 100.465 59.5358 104.984 59.5358C107.825 59.5358 109.891 58.6239 111.441 56.6698L112.861 59.145H117.898L125.646 10.1615H116.994V10.0312Z" fill="#E30907"/>
<path d="M205.578 19.1504C199.121 19.1504 195.376 21.3651 194.343 27.3577L193.827 29.9632C193.181 33.6109 193.956 36.7375 196.797 39.0825L201.704 43.5119C202.608 44.2935 202.995 45.3357 202.866 46.3779L201.962 51.9798C201.704 53.1522 201.058 53.8036 199.896 53.8036C199.379 53.8036 198.992 53.6733 198.734 53.2825C198.476 52.8917 198.346 52.5009 198.476 51.8495L199.509 44.9449H191.502L190.469 51.0678C189.695 56.5394 193.31 59.2752 199.121 59.2752C205.965 59.2752 209.452 56.9302 210.485 51.1981L211.13 47.6807C211.776 44.033 211.26 40.5155 208.419 38.3008L203.253 33.7412C202.22 32.9596 201.833 32.0476 202.091 30.7449L202.737 26.4458C202.995 25.2733 203.641 24.622 204.803 24.622C205.32 24.622 205.707 24.7522 205.965 25.1431C206.223 25.5339 206.353 25.9247 206.223 26.5761L205.32 32.3082H213.584L214.359 27.7486C215.263 22.7981 212.809 19.1504 205.578 19.1504Z" fill="#E30907"/>
<path d="M229.08 19.1504C222.623 19.1504 218.878 21.3651 217.845 27.3577L217.329 29.9632C216.683 33.6109 217.458 36.7375 220.299 39.0825L225.206 43.5119C226.11 44.2935 226.497 45.3357 226.368 46.3779L225.464 51.9798C225.206 53.1522 224.56 53.8036 223.398 53.8036C222.881 53.8036 222.494 53.6733 222.236 53.2825C221.978 52.8917 221.848 52.5009 221.977 51.8495L223.011 44.9449H215.004L213.971 51.0678C213.197 56.5394 216.812 59.2752 222.623 59.2752C229.467 59.2752 232.954 56.9302 233.987 51.1981L234.632 47.6807C235.278 44.033 234.762 40.5155 231.921 38.3008L226.755 33.7412C225.722 32.9596 225.335 32.0476 225.593 30.7449L226.239 26.4458C226.497 25.2733 227.143 24.622 228.305 24.622C228.822 24.622 229.209 24.7522 229.467 25.1431C229.725 25.5339 229.855 25.9247 229.725 26.5761L228.821 32.3082H237.086L237.861 27.7486C238.765 22.7981 236.311 19.1504 229.08 19.1504Z" fill="#E30907"/>
<path d="M178.59 52.1101C178.332 53.2826 177.686 53.934 176.524 53.934C176.007 53.934 175.62 53.8037 175.362 53.4129C175.103 53.1523 175.103 52.7615 175.103 52.3707C175.103 52.2404 175.103 52.1101 175.103 51.9799L176.136 45.0753C176.395 43.6422 177.04 42.7303 178.332 41.9487L180.269 40.9064L178.59 52.1101ZM182.076 19.2808C175.749 19.2808 171.746 21.756 170.713 27.4881L169.938 32.4386H178.332L179.236 26.5762C179.494 25.4037 180.139 24.7523 181.302 24.7523C181.818 24.7523 182.206 24.8826 182.464 25.2734C182.722 25.6642 182.851 26.0551 182.722 26.7064L181.56 34.2624L173.812 38.4312C170.196 40.3853 168.388 42.8606 167.743 46.8991L166.839 52.6312C166.064 57.1909 168.518 59.5358 173.037 59.5358C175.878 59.5358 177.944 58.6239 179.494 56.6698L180.914 59.145H185.95L190.857 27.7487C191.761 21.8863 187.887 19.2808 182.076 19.2808Z" fill="#E30907"/>
<path d="M147.598 9.64014C141.27 9.64014 136.88 12.2456 135.976 17.9778L130.81 50.6768C129.906 56.2787 133.135 59.4053 140.495 59.4053C146.565 59.4053 150.697 56.7998 151.73 51.0677L153.667 39.6034H145.144V39.7337L143.207 51.9796C143.078 53.2823 142.303 53.9337 141.141 53.9337C140.624 53.9337 140.108 53.8034 139.85 53.4126C139.591 53.0218 139.462 52.5007 139.591 51.8493L145.144 17.0658C145.402 15.7631 146.048 15.1117 147.21 15.1117C147.727 15.1117 148.243 15.242 148.502 15.6328C148.76 16.0236 148.889 16.5447 148.76 17.1961L147.081 27.3576H155.604L157.024 18.3686C157.67 12.3759 153.925 9.64014 147.598 9.64014Z" fill="#E30907"/>
<path d="M3.74414 65.0072H6.06852V6.12279H59.6584L60.3041 3.77783H3.74414V65.0072Z" fill="#2D2D2D"/>
<path d="M132.23 6.12279H90.5207L88.9712 15.7632H59.6581L57.4629 13.5485H86.7759L88.3255 3.77783H132.489L132.23 6.12279Z" fill="#2D2D2D"/>
<path d="M134.686 12.2458C138.56 7.68618 142.95 6.12288 147.986 6.12288H176.654L177.041 3.9082H147.599C142.175 3.9082 137.01 6.38343 133.394 10.5522L131.199 13.0275L132.62 14.5908L134.686 12.2458Z" fill="#2D2D2D"/>
<path d="M182.076 9.37991C181.43 9.37991 180.655 9.37991 180.01 9.51019L181.43 0.130371L183.625 2.34505L182.592 9.37991H182.076Z" fill="#2D2D2D"/>
<path d="M136.492 2.99633C137.267 2.6055 138.042 2.21468 138.817 1.82385L136.88 0L136.492 2.99633Z" fill="#2D2D2D"/>
<path d="M65.3409 0L62.5 9.64037H65.47L67.6653 2.21468L65.3409 0Z" fill="#2D2D2D"/>
<path d="M129.391 62.2718C129.133 62.1415 128.875 61.7507 128.616 61.4901C127.067 59.536 126.55 56.8002 126.55 56.8002L124.613 54.7158C124.613 54.7158 125.13 57.5819 127.583 60.4479C127.971 61.0993 128.616 61.7507 129.391 62.2718Z" fill="#2D2D2D"/>
<path d="M241.994 18.7595C241.735 18.4989 241.606 18.1081 241.348 17.8475C238.765 14.7209 234.633 13.0273 229.08 13.0273C224.302 13.0273 220.428 14.1998 217.458 16.2842L216.942 16.9356L216.296 16.4145C213.714 14.1998 210.098 13.1576 205.578 13.1576C200.8 13.1576 196.797 14.3301 193.956 16.5448L193.311 17.0659L192.665 16.5448C189.953 14.3301 186.467 13.1576 181.947 13.1576C180.139 13.1576 178.331 13.2879 176.782 13.6787L175.361 13.9393L177.557 16.1539L178.977 15.8934C180.527 15.5026 182.334 15.3723 184.142 15.3723C188.533 15.3723 192.149 16.5448 194.86 18.7595L195.506 19.2806L196.152 18.7595C198.993 16.5448 202.996 15.3723 207.774 15.3723C212.293 15.3723 215.909 16.4145 218.491 18.6292L219.137 19.1503L219.783 18.6292C222.624 16.4145 226.498 15.3723 231.276 15.3723C235.279 15.3723 238.636 16.2842 241.09 17.9778C241.606 18.2384 241.864 18.6292 241.994 18.7595Z" fill="#2D2D2D"/>
<path d="M243.673 28.9211L239.928 52.6312C239.024 58.1028 237.732 65.0073 224.948 65.0073H140.367C134.168 65.0073 129.907 63.7046 127.453 60.578C125.129 57.7119 124.483 54.8459 124.483 54.8459L122.805 65.1376H55.1395C48.6828 65.1376 45.0671 63.3138 43.2593 61.2294C43.2593 61.2294 43.2593 61.0991 43.1302 61.0991L41.968 65.1376H3.74483V3.77798H60.3047L57.3347 13.4183H86.6477L88.1973 3.77798H132.49L131.198 13.0275L133.394 10.422C137.009 6.12294 142.175 3.77798 147.598 3.77798H177.04L175.491 13.9395L176.911 13.6789C178.461 13.2881 180.269 13.1578 182.076 13.1578C186.467 13.1578 190.083 14.3303 192.794 16.545L193.44 17.0661L194.086 16.545C197.056 14.3303 200.93 13.1578 205.708 13.1578C210.227 13.1578 213.843 14.2 216.426 16.4147L216.942 16.9358L217.588 16.4147C220.429 14.2 224.432 13.1578 229.21 13.1578C234.762 13.1578 238.765 14.7211 241.477 17.978C243.027 19.9321 244.706 23.4495 243.673 28.9211ZM0 68.7853H44.6797L45.1963 67.222C47.6498 68.5248 50.8781 68.7853 55.1395 68.7853H126.162L126.808 65.0073C130.036 67.6129 134.427 68.7853 140.496 68.7853H225.077C241.09 68.7853 242.898 58.7541 243.802 53.2826L247.546 29.5725C248.838 22.6679 246.513 18.1083 244.318 15.5028C240.961 11.3339 235.795 9.37982 229.21 9.24954C224.432 9.24954 220.429 10.2917 217.071 12.1156C213.972 10.1615 210.227 9.24954 205.708 9.24954C200.93 9.24954 196.798 10.2917 193.44 12.2459C190.341 10.2917 186.596 9.24954 182.076 9.24954C181.431 9.24954 180.656 9.24954 180.01 9.37982L181.431 0H155.604H147.598C143.724 0 139.85 1.0422 136.493 2.99633L136.88 0H85.0981L83.5485 9.64037H62.5L65.3409 0H0V68.7853Z" fill="#E30907"/>
<path d="M243.673 28.9211L239.928 52.6312C239.024 58.1028 237.732 65.0073 224.948 65.0073H140.367C134.168 65.0073 129.907 63.7046 127.453 60.578C125.129 57.7119 124.483 54.8459 124.483 54.8459L122.805 65.1376H55.1395C48.6828 65.1376 45.0671 63.3138 43.2593 61.2294C43.2593 61.2294 43.2593 61.0991 43.1302 61.0991L41.968 65.1376H3.74483V3.77798H60.3047L57.3347 13.4183H86.6477L88.1973 3.77798H132.49L131.198 13.0275L133.394 10.422C137.009 6.12294 142.175 3.77798 147.598 3.77798H177.04L175.491 13.9395L176.911 13.6789C178.461 13.2881 180.269 13.1578 182.076 13.1578C186.467 13.1578 190.083 14.3303 192.794 16.545L193.44 17.0661L194.086 16.545C197.056 14.3303 200.93 13.1578 205.708 13.1578C210.227 13.1578 213.843 14.2 216.426 16.4147L216.942 16.9358L217.588 16.4147C220.429 14.2 224.432 13.1578 229.21 13.1578C234.762 13.1578 238.765 14.7211 241.477 17.978C243.027 19.9321 244.706 23.4495 243.673 28.9211ZM0 68.7853H44.6797L45.1963 67.222C47.6498 68.5248 50.8781 68.7853 55.1395 68.7853H126.162L126.808 65.0073C130.036 67.6129 134.427 68.7853 140.496 68.7853H225.077C241.09 68.7853 242.898 58.7541 243.802 53.2826L247.546 29.5725C248.838 22.6679 246.513 18.1083 244.318 15.5028C240.961 11.3339 235.795 9.37982 229.21 9.24954C224.432 9.24954 220.429 10.2917 217.071 12.1156C213.972 10.1615 210.227 9.24954 205.708 9.24954C200.93 9.24954 196.798 10.2917 193.44 12.2459C190.341 10.2917 186.596 9.24954 182.076 9.24954C181.431 9.24954 180.656 9.24954 180.01 9.37982L181.431 0H155.604H147.598C143.724 0 139.85 1.0422 136.493 2.99633L136.88 0H85.0981L83.5485 9.64037H62.5L65.3409 0H0V68.7853Z" fill="#E30907"/>
<path d="M247.03 18.4991C246.901 18.2385 246.643 17.978 246.513 17.8477C246.255 17.4569 245.868 17.066 245.609 16.8055L243.414 14.5908C243.543 14.7211 243.673 14.8514 243.802 15.1119C243.802 15.1119 243.802 15.2422 243.931 15.2422C244.06 15.3725 244.189 15.633 244.318 15.7633C246.513 18.3688 248.709 22.9284 247.546 29.833L243.802 53.5431C242.898 59.0147 241.09 69.0459 225.077 69.0459H140.496C134.556 69.0459 130.165 67.8734 126.808 65.2679L126.162 69.0459H55.1395C51.0072 69.0459 47.9081 68.655 45.4545 67.6128L45.1963 67.222L44.6797 68.7853H0L2.19525 71H46.875L47.3915 69.4367C49.845 70.7394 53.0733 71 57.3347 71H128.357L129.003 67.222C132.231 69.8275 136.622 71 142.691 71H227.273C243.285 71 245.093 60.9688 245.997 55.4972L249.742 31.7871C250.775 25.5339 248.967 21.2349 247.03 18.4991Z" fill="#2D2D2D"/>
<path d="M36.9322 58.8844L51.7824 9.90088H43.3888L35.6409 34.6532H35.1244L35.2535 9.90088H25.956L18.5954 34.7834H18.0789V9.90088H9.81445V58.8844H18.7246L26.989 30.7449H27.5056L28.0221 58.8844H36.9322Z" fill="#E30907"/>
<path d="M18.0781 34.7834H18.5947L20.4025 28.6605V12.1156L18.0781 9.90088V34.7834Z" fill="#2D2D2D"/>
<path d="M35.6396 34.6532L37.4474 29.0513V27.0972V12.1156L35.2522 9.90088L35.123 34.6532H35.6396Z" fill="#2D2D2D"/>
<path d="M27.5056 30.7451H26.989L18.7246 58.8846H9.81445L12.0097 61.0992H21.049L27.6347 38.4314L27.5056 30.7451Z" fill="#2D2D2D"/>
</g>
<defs>
<clipPath id="clip0_1934_835">
<rect width="250" height="71" fill="white"/>
</clipPath>
</defs>
</svg>
