<svg width="40" height="40" viewBox="0 0 40 40" fill="none" xmlns="http://www.w3.org/2000/svg">
<rect width="40" height="40" rx="6" fill="url(#paint0_linear_1946_1664)"/>
<path fill-rule="evenodd" clip-rule="evenodd" d="M34.2819 20.5781C34.2819 28.2397 28.0219 34.4522 20.2999 34.4522C17.8475 34.4522 15.5436 33.8259 13.5406 32.7258L5.79883 35.186L8.32234 27.7425C7.04891 25.6514 6.31668 23.199 6.31668 20.5783C6.31668 12.9151 12.5765 6.70306 20.2999 6.70306C28.0219 6.70292 34.2819 12.915 34.2819 20.5781ZM20.2999 8.9128C13.816 8.9128 8.54345 14.145 8.54345 20.5781C8.54345 23.1293 9.37464 25.4938 10.7825 27.4176L9.3145 31.749L13.8313 30.3137C15.6871 31.5313 17.9107 32.2422 20.2997 32.2422C26.7808 32.2422 32.0548 27.0096 32.0548 20.578C32.055 14.145 26.781 8.9128 20.2999 8.9128ZM27.3606 23.7737C27.2739 23.6317 27.0452 23.5466 26.7038 23.3766C26.3608 23.2069 24.6748 22.3833 24.361 22.2706C24.0472 22.1575 23.8171 22.1005 23.59 22.4403C23.3613 22.7806 22.7042 23.5467 22.5037 23.7739C22.3044 24.0013 22.1049 24.0291 21.762 23.8589C21.4186 23.6892 20.3138 23.3288 19.0051 22.1718C17.9869 21.269 17.2989 20.1567 17.098 19.8164C16.8991 19.4766 17.0782 19.2927 17.2479 19.123C17.4026 18.9699 17.5912 18.7258 17.7626 18.5281C17.9343 18.3287 17.9913 18.1862 18.1056 17.9592C18.2199 17.7321 18.163 17.5343 18.0764 17.3642C17.9913 17.1945 17.3053 15.5208 17.0193 14.8391C16.7354 14.1594 16.4492 14.1849 16.2483 14.1849C16.049 14.1849 15.6789 14.2442 15.6789 14.2442C15.6789 14.2442 14.9918 14.3293 14.6781 14.6696C14.3644 15.0094 13.479 15.833 13.479 17.5051C13.479 19.1785 14.7062 20.7965 14.8775 21.0219C15.0492 21.2494 17.2479 24.7955 20.7328 26.1572C24.2177 27.5184 24.2177 27.0643 24.8462 27.007C25.4736 26.9516 26.8736 26.185 27.1596 25.3906C27.4455 24.5957 27.4455 23.9146 27.3606 23.7737Z" fill="white"/>
<defs>
<linearGradient id="paint0_linear_1946_1664" x1="20" y1="0" x2="20" y2="40" gradientUnits="userSpaceOnUse">
<stop stop-color="#33C220"/>
<stop offset="1" stop-color="#159B0C"/>
</linearGradient>
</defs>
</svg>
